<svg xmlns="http://www.w3.org/2000/svg" version="1.1" xlink="http://www.w3.org/1999/xlink" xmlns:svgjs="http://svgjs.com/svgjs" width="100%" height="100%" viewBox="3.9993040561676025 3.9609999656677246 92.00025939941406 92.07850646972656"><g fill="#1c72ce"><path d="M31.309 25.551a5.768 5.768 0 0 0-5.758 5.758v37.383a5.768 5.768 0 0 0 5.758 5.758h37.383a5.768 5.768 0 0 0 5.758-5.758V31.309a5.768 5.768 0 0 0-5.758-5.758zm38.941 7.07V67.38a2.88 2.88 0 0 1-2.871 2.871H32.62a2.88 2.88 0 0 1-2.871-2.87V32.62a2.88 2.88 0 0 1 2.87-2.87H67.38a2.88 2.88 0 0 1 2.871 2.87zm12.672 3.23V25a4.2 4.2 0 0 1 .957-8.29 4.197 4.197 0 0 1 4.172 3.72 4.196 4.196 0 0 1-3.21 4.57v11.8a1 1 0 0 1-1 1H76.36v-1.948zM4 8.2c0-1.61.922-3.078 2.371-3.781a4.206 4.206 0 0 1 4.438.492A4.208 4.208 0 0 1 12.3 9.118a4.205 4.205 0 0 1-3.14 3.172v23.562h14.48v1.91H8.198c-.55 0-1-.45-1-1V12.289A4.19 4.19 0 0 1 4 8.199zm13.078 56V75a4.2 4.2 0 0 1-.957 8.29 4.197 4.197 0 0 1-4.172-3.719 4.196 4.196 0 0 1 3.21-4.57V63.2c0-.551.45-1 1-1h7.52v1.91zm18.773 12.16h1.91V91.8a1 1 0 0 1-1 1H12.288a4.2 4.2 0 1 1 0-1.921H35.85zm-19.16-60.238a4.2 4.2 0 0 1 3.695-4.219 4.206 4.206 0 0 1 4.594 3.219H36.8a1 1 0 0 1 1 1v7.52h-1.95v-6.563H25a4.202 4.202 0 0 1-4.594 3.219 4.203 4.203 0 0 1-3.695-4.22zm7 34.84H12.289a4.2 4.2 0 1 1 0-1.922h11.352zM83.308 83.88a4.2 4.2 0 0 1-3.695 4.219 4.206 4.206 0 0 1-4.594-3.22h-11.82a1 1 0 0 1-1-1V76.36h1.91v6.559L75 82.923a4.202 4.202 0 0 1 4.594-3.219 4.203 4.203 0 0 1 3.695 4.219zm12.691 7.922c0 1.61-.922 3.078-2.371 3.78a4.206 4.206 0 0 1-4.438-.491 4.208 4.208 0 0 1-1.492-4.207 4.205 4.205 0 0 1 3.14-3.172V64.15h-14.48v-1.91H91.8a1 1 0 0 1 1 1v24.473a4.19 4.19 0 0 1 3.199 4.09zm-41.801 0a4.198 4.198 0 0 1-6.797 3.289A4.197 4.197 0 0 1 49 87.71V76.36h2v11.352a4.185 4.185 0 0 1 3.199 4.09zm10-68.16h-1.96V8.2c0-.551.448-1 1-1H87.71a4.2 4.2 0 1 1 0 1.922H64.148zM45.8 8.2a4.198 4.198 0 0 1 6.797-3.29 4.197 4.197 0 0 1-1.598 7.38v11.352h-2V12.29A4.185 4.185 0 0 1 45.8 8.2zM76.359 49h11.352a4.2 4.2 0 1 1 0 1.922H76.359zM32.621 31.66a1 1 0 0 0-1 1v34.72a1 1 0 0 0 1 1h34.758a1 1 0 0 0 1-1V32.623a1 1 0 0 0-1-1zM65.422 51.4a2.686 2.686 0 0 1-2.203 2.6l-.922.172h.004a14.33 14.33 0 0 1-.629 1.508l.531.77H62.2a2.682 2.682 0 0 1-.3 3.421l-2 2a2.682 2.682 0 0 1-3.418.301l-.77-.531c-.492.238-.996.45-1.512.629l-.172.922h.004a2.685 2.685 0 0 1-2.64 2.199H48.6a2.682 2.682 0 0 1-2.6-2.172l-.173-.922v.004c-.512-.18-1.015-.39-1.508-.629l-.77.531V62.2a2.682 2.682 0 0 1-3.421-.3l-2-2a2.682 2.682 0 0 1-.3-3.418l.53-.77a14.04 14.04 0 0 1-.628-1.512l-.95-.199a2.681 2.681 0 0 1-2.203-2.64v-2.758A2.686 2.686 0 0 1 36.781 46l.922-.172H37.7c.18-.511.39-1.015.63-1.507l-.532-.77h.004a2.682 2.682 0 0 1 .3-3.422l2-2a2.682 2.682 0 0 1 3.419-.3l.77.53c.491-.238.995-.449 1.51-.628l.173-.922h-.004a2.685 2.685 0 0 1 2.64-2.2h2.801A2.68 2.68 0 0 1 54 36.784l.172.921v-.003c.512.18 1.016.39 1.508.628l.77-.53v.003a2.682 2.682 0 0 1 3.421.3l2 2c.91.919 1.04 2.356.3 3.419l-.53.77c.238.492.449.995.629 1.511l.921.172v-.004a2.685 2.685 0 0 1 2.2 2.64zm-2.55-3.559l-1.602-.289a.728.728 0 0 1-.598-.539 10.992 10.992 0 0 0-1-2.441.726.726 0 0 1 0-.809l.93-1.34a.763.763 0 0 0-.09-1l-2-2a.764.764 0 0 0-1-.094l-1.34.93v.004a.747.747 0 0 1-.813 0c-.769-.434-1.59-.77-2.437-1a.737.737 0 0 1-.543-.602l-.289-1.601a.761.761 0 0 0-.762-.629h-2.726a.761.761 0 0 0-.762.629l-.29 1.601a.738.738 0 0 1-.538.602c-.852.23-1.672.566-2.442 1a.74.74 0 0 1-.808 0l-1.34-.93v-.004a.764.764 0 0 0-1 .094l-2 2a.764.764 0 0 0-.094 1l.93 1.34h.004a.74.74 0 0 1 0 .809c-.434.77-.77 1.59-1 2.441a.738.738 0 0 1-.602.539l-1.601.29a.761.761 0 0 0-.63.76v2.802-.004a.762.762 0 0 0 .63.761l1.601.29c.29.042.528.257.602.539.23.851.566 1.671 1 2.441a.74.74 0 0 1 0 .809l-.93 1.34h-.004a.764.764 0 0 0 .094 1l2 2a.764.764 0 0 0 1 .093l1.34-.93v-.004a.74.74 0 0 1 .808 0c.77.434 1.59.77 2.442 1a.738.738 0 0 1 .539.602l.289 1.602a.761.761 0 0 0 .762.629h2.8-.003a.761.761 0 0 0 .761-.63l.29-1.6a.738.738 0 0 1 .538-.603c.852-.23 1.672-.566 2.442-1a.74.74 0 0 1 .808 0l1.34.93v.004a.764.764 0 0 0 1-.094l2-2a.764.764 0 0 0 .094-1l-.93-1.34h-.004a.74.74 0 0 1 0-.808c.434-.77.77-1.59 1-2.441a.738.738 0 0 1 .602-.54l1.601-.289a.761.761 0 0 0 .63-.761v-2.797a.762.762 0 0 0-.7-.762zm-7.95 7.078v.004a7 7 0 0 1-8.848.813A7 7 0 1 1 57 50.002a6.945 6.945 0 0 1-2.078 4.921zm-1.352-8.488a4.998 4.998 0 0 1 .684 6.305 5 5 0 0 1-9.102-3.648A5 5 0 0 1 50 45a5.055 5.055 0 0 1 3.57 1.43z" fill-rule="evenodd"></path></g></svg>